{"title":"Trouble.With.The.Curve.2012.NORDiC.720p.BluRay.x264-KraBBa","uid":8237450,"size":6124825442,"categoryP":"video","categoryS":"hd___movies","magnet":"?xt=urn:btih:f67dfca379a57fd557e477f885118a729600ae52&amp;dn=Trouble.With.The.Curve.2012.NORDiC.720p.BluRay.x264-KraBBa&amp;tr=udp%3A%2F%2Ftracker.openbittorrent.com%3A80&amp;tr=udp%3A%2F%2Fopen.demonii.com%3A1337&amp;tr=udp%3A%2F%2Ftracker.coppersurfer.tk%3A6969&amp;tr=udp%3A%2F%2Fexodus.desync.com%3A6969","seeders":0,"leechers":1,"uploader":"Robblowe","files":-1,"time":1362872765,"description":"General\nComplete name                  : KraBBa-twtc.mkv\nFormat                         : Matroska\nFormat version                 : Version 4 / Version 2\nFile size                      : 5.70 GiB\nDuration                       : 1h 51mn\nOverall bit rate               : 7 343 Kbps\nEncoded date                   : UTC 2013-03-07 20:52:53\nWriting application            : mkvmerge v6.0.0 ('Coming Up For Air') built on Jan 20 2013 09:52:00\nWriting library                : libebml v1.3.0 + libmatroska v1.4.0\n\nVideo\nID                             : 1\nFormat                         : AVC\nFormat/Info                    : Advanced Video Codec\nFormat profile                 : &lt;a class=&quot;__cf_email__&quot; href=&quot;/cdn-cgi/l/email-protection&quot; data-cfemail=&quot;2b63424c436b671f051a&quot;&gt;[email&amp;#160;protected]&lt;/a&gt;&lt;script cf-hash='f9e31' type=&quot;text/javascript&quot;&gt;\n/* &lt;![CDATA[ */!function(){try{var t=&quot;currentScript&quot;in document?document.currentScript:function(){for(var t=document.getElementsByTagName(&quot;script&quot;),e=t.length;e--;)if(t[e].getAttribute(&quot;cf-hash&quot;))return t[e]}();if(t&amp;&amp;t.previousSibling){var e,r,n,i,c=t.previousSibling,a=c.getAttribute(&quot;data-cfemail&quot;);if(a){for(e=&quot;&quot;,r=parseInt(a.substr(0,2),16),n=2;a.length-n;n+=2)i=parseInt(a.substr(n,2),16)^r,e+=String.fromCharCode(i);e=document.createTextNode(e),c.parentNode.replaceChild(e,c)}}}catch(u){}}();/* ]]&gt; */&lt;/script&gt;\nFormat settings, CABAC         : Yes\nFormat settings, ReFrames      : 5 frames\nCodec ID                       : V_MPEG4/ISO/AVC\nDuration                       : 1h 51mn\nBit rate                       : 5 804 Kbps\nWidth                          : 1 280 pixels\nHeight                         : 528 pixels\nDisplay aspect ratio           : 2.40:1\nFrame rate mode                : Constant\nFrame rate                     : 23.976 fps\nColor space                    : YUV\nChroma subsampling             : 4:2:0\nBit depth                      : 8 bits\nScan type                      : Progressive\nBits/(Pixel*Frame)             : 0.358\nStream size                    : 4.42 GiB (77%)\nWriting library                : x264 core 129 r2245 bc13772\nDefault                        : Yes\nForced                         : No\n\nAudio\nID                             : 2\nFormat                         : DTS\nFormat/Info                    : Digital Theater Systems\nMode                           : 16\nFormat settings, Endianness    : Big\nCodec ID                       : A_DTS\nDuration                       : 1h 51mn\nBit rate mode                  : Constant\nBit rate                       : 1 509 Kbps\nChannel(s)                     : 6 channels\nChannel positions              : Front: L C R, Side: L R, LFE\nSampling rate                  : 48.0 KHz\nBit depth                      : 24 bits\nCompression mode               : Lossy\nStream size                    : 1.17 GiB (21%)\nLanguage                       : English\nDefault                        : Yes\nForced                         : No\n\nSubtitles\nSwedish, Danish, Norwegian, Finnish, English, muxxed VobSub","torrent":{"xt":"urn:btih:f67dfca379a57fd557e477f885118a729600ae52","amp;dn":"Trouble.With.The.Curve.2012.NORDiC.720p.BluRay.x264-KraBBa","amp;tr":["udp%3A%2F%2Ftracker.openbittorrent.com%3A80","udp%3A%2F%2Fopen.demonii.com%3A1337","udp%3A%2F%2Ftracker.coppersurfer.tk%3A6969","udp%3A%2F%2Fexodus.desync.com%3A6969"],"infoHash":"f67dfca379a57fd557e477f885118a729600ae52","infoHashBuffer":{"type":"Buffer","data":[246,125,252,163,121,165,127,213,87,228,119,248,133,17,138,114,150,0,174,82]},"announce":[],"urlList":[]}}